<?xml version="1.0" standalone="no"?>
<!DOCTYPE svg PUBLIC "-//W3C//DTD SVG 20010904//EN"
 "http://www.w3.org/TR/2001/REC-SVG-20010904/DTD/svg10.dtd">
<svg version="1.0" xmlns="http://www.w3.org/2000/svg"
 width="700.000000pt" height="700.000000pt" viewBox="0 0 700.000000 700.000000"
 preserveAspectRatio="xMidYMid meet">
<metadata>
Created by potrace 1.14, written by Peter Selinger 2001-2017
</metadata>
<g transform="translate(0.000000,700.000000) scale(0.100000,-0.100000)"
fill="#000000" stroke="none">
<path d="M3351 6984 c-120 -32 -202 -108 -232 -215 -11 -41 -13 -227 -4 -384
2 -33 6 -118 9 -190 4 -71 9 -150 11 -175 8 -73 17 -154 20 -170 44 -225 112
-318 240 -326 106 -7 198 41 247 129 26 46 74 191 83 247 3 19 10 51 15 70 5
19 11 51 14 70 7 49 33 188 56 300 21 105 28 138 36 190 3 19 9 49 13 65 7 31
7 62 -4 128 -29 189 -283 321 -504 261z"/>
<path d="M1623 6349 c-70 -27 -147 -110 -168 -182 -34 -117 9 -247 138 -417
128 -169 336 -385 467 -483 201 -151 376 -167 441 -39 21 41 24 59 24 166 0
67 -4 139 -8 161 -4 22 -10 54 -13 70 -10 61 -74 236 -117 321 -86 172 -187
278 -330 348 -149 72 -327 95 -434 55z"/>
<path d="M5059 6336 c-2 -2 -22 -7 -43 -10 -152 -24 -324 -188 -437 -416 -103
-207 -159 -541 -114 -671 43 -121 146 -172 251 -123 50 23 220 192 356 355
122 144 274 299 372 379 81 66 106 104 111 169 8 130 -132 273 -303 310 -51
10 -184 15 -193 7z"/>
<path d="M3437 4955 c-1 -1 -40 -5 -87 -8 -663 -48 -1148 -421 -1407 -1082
-31 -78 -75 -218 -88 -280 -22 -100 -33 -166 -40 -235 -3 -30 -8 -71 -11 -90
-6 -39 -6 -323 0 -385 12 -131 17 -173 21 -195 3 -14 7 -38 10 -55 7 -53 25
-137 37 -179 6 -23 12 -45 14 -51 16 -73 107 -279 166 -375 113 -185 316 -364
534 -473 77 -39 238 -102 284 -112 8 -2 44 -11 80 -20 36 -9 76 -19 90 -22 14
-3 30 -6 35 -7 6 -2 33 -6 60 -10 28 -4 61 -10 75 -12 72 -12 181 -18 320 -17
441 1 863 121 1124 318 232 174 381 385 485 688 22 64 38 117 36 117 -3 0 0
11 5 25 10 26 35 166 45 255 7 60 7 500 0 565 -7 69 -15 129 -20 155 -2 14 -7
39 -10 55 -3 17 -7 41 -10 55 -4 14 -9 39 -12 55 -13 76 -99 311 -149 410
-190 372 -485 650 -842 793 -100 40 -269 86 -357 97 -27 3 -63 8 -80 11 -29 5
-302 13 -308 9z m255 -813 c176 -63 360 -244 467 -458 36 -73 74 -175 86 -234
31 -148 38 -211 38 -370 0 -115 -10 -277 -18 -291 -2 -3 -6 -18 -9 -33 -25
-138 -96 -277 -191 -371 -295 -296 -933 -255 -1154 74 -96 144 -161 422 -155
671 1 69 5 136 8 150 2 14 7 41 10 60 19 126 95 318 184 464 108 176 295 322
457 356 68 15 214 5 277 -18z"/>
<path d="M2063 806 c-17 -8 -38 -27 -46 -43 -52 -105 -55 -595 -4 -703 26 -54
53 -58 358 -58 153 0 279 4 279 9 0 4 168 8 373 9 204 0 422 2 482 4 61 3 220
7 355 11 135 3 290 8 345 10 55 2 214 6 353 10 297 8 321 10 365 24 51 17 77
76 93 206 16 131 -1 333 -33 402 -31 67 -27 67 -908 88 -143 3 -321 8 -395 10
-74 2 -238 7 -365 10 -126 4 -273 8 -325 10 -52 2 -275 6 -495 9 -338 6 -405
4 -432 -8z"/>
</g>
</svg>
