<svg width="12" height="22" viewBox="0 0 12 22" fill="none" xmlns="http://www.w3.org/2000/svg">
<path d="M11.5139 0.271068L8.65345 0.266602C5.43979 0.266602 3.36299 2.34017 3.36299 5.54958V7.98538H0.486893C0.238365 7.98538 0.0371094 8.18146 0.0371094 8.42332V11.9525C0.0371094 12.1944 0.238594 12.3902 0.486893 12.3902H3.36299V21.2956C3.36299 21.5374 3.56424 21.7333 3.81277 21.7333H7.56525C7.81378 21.7333 8.01503 21.5372 8.01503 21.2956V12.3902H11.3779C11.6264 12.3902 11.8276 12.1944 11.8276 11.9525L11.829 8.42332C11.829 8.30719 11.7815 8.19598 11.6973 8.11379C11.6131 8.03161 11.4983 7.98538 11.379 7.98538H8.01503V5.92052C8.01503 4.92806 8.25806 4.42424 9.58652 4.42424L11.5135 4.42357C11.7618 4.42357 11.963 4.22749 11.963 3.98586V0.708785C11.963 0.467371 11.762 0.271515 11.5139 0.271068Z" fill="#F0540B"/>
</svg>
