<svg width="20" height="20" viewBox="0 0 20 20" fill="none" xmlns="http://www.w3.org/2000/svg">
<path d="M16.6856 16.6917H13.8754V12.282C13.8754 11.2305 13.8534 9.87918 12.4059 9.87918C10.9405 9.87918 10.7173 11.0197 10.7173 12.2042V16.6911H7.90347V7.62418H10.6062V8.86093H10.6424C11.0201 8.14667 11.9386 7.3956 13.309 7.3956C16.1596 7.3956 16.6886 9.27238 16.6886 11.7126V16.6911L16.6856 16.6917ZM4.72453 6.38507C3.81787 6.38507 3.09112 5.65181 3.09112 4.74874C3.09112 3.84865 3.82084 3.11657 4.72453 3.11657C5.62822 3.11657 6.36031 3.84865 6.36031 4.74874C6.36031 5.65181 5.62822 6.38507 4.72453 6.38507ZM6.13409 16.6917H3.31437V7.62478H6.13409V16.6917ZM18.0964 0.5H1.90125C1.12759 0.5 0.5 1.11214 0.5 1.86974V18.1303C0.5 18.8879 1.12759 19.5 1.90125 19.5H18.0934C18.8659 19.5 19.5 18.8879 19.5 18.1303V1.86974C19.5 1.11214 18.8659 0.5 18.0934 0.5L18.0964 0.5Z" fill="#F0540B"/>
</svg>
