<svg width="20" height="20" viewBox="0 0 20 20" fill="none" xmlns="http://www.w3.org/2000/svg">
<path d="M10.0144 0C4.48343 0 0 4.47264 0 9.99031C0 14.2223 2.64019 17.8356 6.36614 19.2906C6.2778 18.4993 6.19949 17.2887 6.39872 16.4261C6.58167 15.6449 7.57346 11.4616 7.57346 11.4616C7.57346 11.4616 7.27335 10.8591 7.27335 9.97719C7.27335 8.59027 8.08283 7.55211 9.08464 7.55211C9.93985 7.55211 10.354 8.19026 10.354 8.95841C10.354 9.81468 9.80891 11.0972 9.52509 12.2854C9.28701 13.2785 10.0244 14.0886 11.0068 14.0886C12.7855 14.0886 14.1558 12.2166 14.1558 9.51467C14.1558 7.13147 12.4328 5.4583 9.97243 5.4583C7.12361 5.4583 5.45267 7.59399 5.45267 9.79093C5.45267 10.6503 5.78222 11.5747 6.19698 12.0729C6.27843 12.1735 6.28845 12.2616 6.26527 12.3629C6.19009 12.6754 6.0203 13.3623 5.98772 13.4992C5.94198 13.6848 5.84425 13.7236 5.6519 13.6361C4.40511 13.0598 3.61882 11.2366 3.61882 9.76531C3.61882 6.61771 5.9163 3.72012 10.2368 3.72012C13.709 3.72012 16.4106 6.19394 16.4106 9.48842C16.4106 12.936 14.2341 15.7092 11.2061 15.7092C10.1911 15.7092 9.23814 15.1849 8.90233 14.5598L8.2758 16.933C8.05087 17.8024 7.43688 18.8925 7.02274 19.5537C7.96253 19.84 8.95119 20 9.98872 20C15.5103 20 20 15.5305 20 10.0097C20 4.49202 15.5097 0.0225007 9.98872 0.0225007L10.0144 0Z" fill="#F0540B"/>
</svg>
