<svg width="18" height="20" viewBox="0 0 18 20" fill="none" xmlns="http://www.w3.org/2000/svg">
<path d="M9.43062 0.208934C10.5003 0.192383 11.5639 0.202191 12.6263 0.192383C12.6907 1.44356 13.1406 2.71803 14.0565 3.60262C14.9705 4.50928 16.2634 4.92429 17.5213 5.06467V8.35598C16.3424 8.31736 15.1581 8.07216 14.0884 7.56457C13.6225 7.3537 13.1884 7.08213 12.7636 6.80443C12.7581 9.19276 12.7734 11.578 12.7483 13.9565C12.6845 15.0992 12.3075 16.2364 11.643 17.178C10.5739 18.7455 8.71829 19.7674 6.81241 19.7992C5.64338 19.8661 4.47557 19.5473 3.47941 18.96C1.82855 17.9865 0.666872 16.2045 0.497678 14.2919C0.478061 13.883 0.471318 13.4747 0.48787 13.0756C0.634995 11.5204 1.40434 10.0326 2.5985 9.0205C3.95205 7.84166 5.84813 7.28013 7.62343 7.61239C7.63999 8.82311 7.59156 10.0326 7.59156 11.2433C6.78053 10.9809 5.8328 11.0545 5.12415 11.5468C4.60676 11.8821 4.21381 12.3958 4.00906 12.9769C3.83987 13.3913 3.8883 13.8517 3.89811 14.2919C4.09243 15.6332 5.38223 16.7605 6.75907 16.6385C7.67186 16.6287 8.54664 16.0991 9.02235 15.3236C9.17622 15.052 9.34848 14.7743 9.35767 14.4549C9.43798 12.9929 9.4061 11.537 9.41591 10.0749C9.42265 6.77991 9.4061 3.49411 9.43123 0.209547L9.43062 0.208934Z" fill="#F0540B"/>
</svg>
