<svg width="22" height="22" viewBox="0 0 22 22" fill="none" xmlns="http://www.w3.org/2000/svg">
<path fill-rule="evenodd" clip-rule="evenodd" d="M6.32076 0.557617H15.6784C18.8564 0.557617 21.4419 3.14309 21.4417 6.32088V15.6785C21.4417 18.8563 18.8564 21.4417 15.6784 21.4417H6.32076C3.14296 21.4417 0.557617 18.8564 0.557617 15.6785V6.32088C0.557617 3.14309 3.14296 0.557617 6.32076 0.557617ZM15.6785 19.5888C17.8347 19.5888 19.5889 17.8347 19.5889 15.6785L19.5888 6.32088C19.5888 4.1648 17.8346 2.41056 15.6784 2.41056H6.32076C4.16468 2.41056 2.41056 4.1648 2.41056 6.32088V15.6785C2.41056 17.8347 4.16468 19.5889 6.32076 19.5888H15.6785Z" fill="#F0540B"/>
<path fill-rule="evenodd" clip-rule="evenodd" d="M5.61816 10.9995C5.61816 8.03218 8.03218 5.61816 10.9995 5.61816C13.9668 5.61816 16.3808 8.03218 16.3808 10.9995C16.3808 13.9667 13.9668 16.3805 10.9995 16.3805C8.03218 16.3805 5.61816 13.9667 5.61816 10.9995ZM7.4707 10.9991C7.4707 12.9445 9.05361 14.5272 10.9991 14.5272C12.9445 14.5272 14.5274 12.9445 14.5274 10.9991C14.5274 9.05349 12.9447 7.4707 10.9991 7.4707C9.05349 7.4707 7.4707 9.05349 7.4707 10.9991Z" fill="#F0540B"/>
<path d="M16.6069 4.04785C16.2499 4.04785 15.8992 4.19238 15.647 4.44562C15.3937 4.69762 15.248 5.04844 15.248 5.40667C15.248 5.7638 15.3938 6.1145 15.647 6.36773C15.899 6.61973 16.2499 6.7655 16.6069 6.7655C16.9651 6.7655 17.3147 6.61973 17.5679 6.36773C17.8212 6.1145 17.9657 5.76367 17.9657 5.40667C17.9657 5.04844 17.8212 4.69762 17.5679 4.44562C17.3159 4.19238 16.9651 4.04785 16.6069 4.04785Z" fill="#F0540B"/>
</svg>
