<svg width="13" height="22" viewBox="0 0 13 22" fill="none" xmlns="http://www.w3.org/2000/svg">
    <path d="M11.9768 0.0044665L9.11634 0C5.90268 0 3.82588 2.07357 3.82588 5.28298V7.71878H0.949784C0.701255 7.71878 0.5 7.91486 0.5 8.15672V11.6859C0.5 11.9278 0.701485 12.1236 0.949784 12.1236H3.82588V21.0289C3.82588 21.2708 4.02713 21.4667 4.27566 21.4667H8.02814C8.27667 21.4667 8.47792 21.2706 8.47792 21.0289V12.1236H11.8407C12.0893 12.1236 12.2905 11.9278 12.2905 11.6859L12.2919 8.15672C12.2919 8.04059 12.2444 7.92938 12.1602 7.84719C12.076 7.76501 11.9612 7.71878 11.8419 7.71878H8.47792V5.65392C8.47792 4.66146 8.72095 4.15764 10.0494 4.15764L11.9764 4.15697C12.2247 4.15697 12.4259 3.96089 12.4259 3.71925V0.442183C12.4259 0.200769 12.2249 0.00491315 11.9768 0.0044665Z" fill="#EA9C7D"/>
    </svg>