<svg width="128" height="128" viewBox="0 0 128 128" fill="none" xmlns="http://www.w3.org/2000/svg">
<rect width="128" height="128" rx="24" fill="#F3997D"/>
<path d="M88.3857 70.4291C88.3857 69.3553 88.463 68.2815 88.3703 67.2154C87.8913 61.5914 86.2767 56.3769 82.6613 51.9271C77.5317 45.6156 70.7644 43.0894 62.792 43.5298C52.9423 44.086 46.1363 49.0379 42.351 58.0687C39.9407 63.8008 39.539 69.8497 40.4583 75.9372C41.7484 84.4968 46.3526 90.4298 54.8118 93.0023C60.6212 94.7714 66.531 94.7868 72.3944 93.3886C78.6133 91.9053 83.4493 88.4753 86.184 82.5346C87.9454 78.6951 88.5943 74.6239 88.3934 70.4214L88.3857 70.4291ZM74.1326 76.3158C72.9816 79.4599 70.7258 81.3835 67.5044 82.1483C64.9241 82.7586 62.3439 82.6736 59.8564 81.7775C57.4306 80.9045 55.5843 79.2823 54.7345 76.8102C52.6796 70.7922 53.0195 64.9674 56.4727 59.4902C57.3611 58.0919 58.5354 56.9022 59.9182 55.9674C63.24 53.7194 66.9481 54.1288 70.046 57.0413C73.785 60.5562 75.1446 64.9905 75.0442 69.9888C75.106 72.1441 74.8897 74.2608 74.1404 76.308L74.1326 76.3158Z" fill="white"/>
<path d="M52.0307 113.304C49.6204 113.304 47.2024 113.273 44.7921 113.32C43.7183 113.343 42.9999 112.887 42.8376 111.898C42.3432 108.932 42.3432 105.942 42.9226 102.991C43.1157 102.018 43.9501 101.755 44.8925 101.755C48.6007 101.755 52.3011 101.848 56.0092 101.964C64.0435 102.219 72.0777 102.388 80.112 102.605C81.2244 102.636 82.3368 102.767 83.4493 102.782C84.4304 102.798 84.9557 103.346 85.1179 104.204C85.5042 106.228 85.6201 108.275 85.2184 110.315C84.8939 111.945 84.4227 112.377 82.8235 112.424C75.724 112.64 68.6322 112.872 61.5327 113.034C58.3654 113.111 55.198 113.049 52.023 113.049V113.312L52.0307 113.304Z" fill="white"/>
<path d="M69.1266 20.0219C68.6709 22.3935 68.1378 25.1978 67.6048 27.9943C67.2571 29.8329 66.9481 31.6793 66.1524 33.402C65.4494 34.9316 64.2057 35.5419 62.5911 35.511C61.0074 35.4801 60.204 34.4449 59.725 33.1084C58.8212 30.59 58.8443 27.9325 58.6744 25.3137C58.5431 23.3978 58.5431 21.4819 58.4581 19.5661C58.3499 17.2253 59.586 15.5103 61.8495 14.9077C63.8889 14.367 65.7353 14.8073 67.4194 16.0124C68.64 16.8854 69.1807 18.0983 69.1266 20.0296V20.0219Z" fill="white"/>
<path d="M50.3311 37.0329C50.3311 37.4346 50.362 37.8363 50.3311 38.238C50.138 40.4165 48.6625 41.3899 46.5844 40.6946C44.3595 39.9453 42.7063 38.3539 41.0763 36.7779C39.4153 35.1711 37.8935 33.4174 36.5647 31.5093C36.2325 31.0381 35.9004 30.5514 35.6609 30.0338C34.927 28.4269 34.6025 26.7737 35.769 25.2364C36.9433 23.6836 38.6583 23.3437 40.4505 23.6218C43.7029 24.124 46.2599 25.7385 47.8899 28.6896C49.3346 31.3007 50.2307 34.0586 50.3389 37.0483L50.3311 37.0329Z" fill="white"/>
<path d="M77.3772 37.1951C77.6399 33.0312 78.9841 29.2535 81.8579 26.1711C84.7394 23.0733 90.178 23.2896 92.3488 26.4724C93.3376 27.9171 93.2217 29.4621 91.8543 30.5127C89.1042 32.6295 86.9411 35.2869 84.7162 37.8981C83.936 38.8097 83.0785 39.6672 82.1978 40.486C81.348 41.2663 80.3128 41.8611 79.154 41.3358C78.0107 40.8259 77.5317 39.729 77.3849 38.5238C77.3309 38.0835 77.3772 37.6354 77.3772 37.1874V37.1951Z" fill="white"/>
</svg>
