<svg width="19" height="19" viewBox="0 0 19 19" fill="none" xmlns="http://www.w3.org/2000/svg">
    <path d="M16.1856 16.1917H13.3754V11.782C13.3754 10.7305 13.3534 9.37918 11.9059 9.37918C10.4405 9.37918 10.2172 10.5197 10.2172 11.7042V16.1911H7.40347V7.12418H10.1062V8.36093H10.1424C10.5201 7.64667 11.4386 6.8956 12.809 6.8956C15.6596 6.8956 16.1886 8.77238 16.1886 11.2126V16.1911L16.1856 16.1917ZM4.22453 5.88507C3.31787 5.88507 2.59113 5.15181 2.59113 4.24874C2.59113 3.34865 3.32084 2.61657 4.22453 2.61657C5.12822 2.61657 5.86031 3.34865 5.86031 4.24874C5.86031 5.15181 5.12822 5.88507 4.22453 5.88507ZM5.63409 16.1917H2.81437V7.12478H5.63409V16.1917ZM17.5964 0H1.40125C0.627594 0 0 0.612137 0 1.36974V17.6303C0 18.3879 0.627594 19 1.40125 19H17.5934C18.3659 19 19 18.3879 19 17.6303V1.36974C19 0.612137 18.3659 0 17.5934 0L17.5964 0Z" fill="#EA9C7D"/>
    </svg>
    