<svg width="20" height="20" viewBox="0 0 20 20" fill="none" xmlns="http://www.w3.org/2000/svg">
    <path d="M9.75215 0C4.36602 0 0 4.36602 0 9.75215C0 13.8833 2.57104 17.4104 6.19943 18.8307C6.1134 18.0583 6.03714 16.8765 6.23115 16.0346C6.40931 15.2719 7.37513 11.1884 7.37513 11.1884C7.37513 11.1884 7.08288 10.6002 7.08288 9.73934C7.08288 8.38549 7.87116 7.37208 8.84674 7.37208C9.67955 7.37208 10.0828 7.99501 10.0828 8.74485C10.0828 9.58071 9.55204 10.8327 9.27565 11.9925C9.04381 12.962 9.76192 13.7527 10.7186 13.7527C12.4507 13.7527 13.785 11.9254 13.785 9.28785C13.785 6.96147 12.1072 5.32818 9.71128 5.32818C6.93706 5.32818 5.30987 7.41295 5.30987 9.55753C5.30987 10.3964 5.6308 11.2988 6.0347 11.7851C6.11401 11.8833 6.12377 11.9693 6.1012 12.0682C6.02798 12.3732 5.86264 13.0437 5.83091 13.1774C5.78638 13.3586 5.6912 13.3964 5.50389 13.311C4.28975 12.7485 3.52405 10.9687 3.52405 9.53251C3.52405 6.45995 5.76136 3.63143 9.96875 3.63143C13.35 3.63143 15.9809 6.04629 15.9809 9.26223C15.9809 12.6276 13.8613 15.3348 10.9126 15.3348C9.92421 15.3348 8.99622 14.8229 8.66919 14.2127L8.05907 16.5294C7.84004 17.378 7.24212 18.4421 6.83883 19.0876C7.75401 19.367 8.71678 19.5232 9.72714 19.5232C15.1041 19.5232 19.4762 15.1603 19.4762 9.77107C19.4762 4.38493 15.1035 0.0219643 9.72714 0.0219643L9.75215 0Z" fill="#EA9C7D"/>
    </svg>
    