<svg width="18" height="20" viewBox="0 0 18 20" fill="none" xmlns="http://www.w3.org/2000/svg">
    <path
        d="M8.9521 0.0165516C10.0218 0 11.0854 0.00980834 12.1478 0C12.2122 1.25118 12.6621 2.52565 13.578 3.41024C14.492 4.31689 15.7848 4.73191 17.0428 4.87229V8.1636C15.8639 8.12498 14.6796 7.87977 13.6098 7.37219C13.1439 7.16131 12.7099 6.88974 12.2851 6.61205C12.2796 9.00038 12.2949 11.3856 12.2698 13.7642C12.206 14.9068 11.829 16.044 11.1645 16.9856C10.0954 18.5531 8.23977 19.575 6.33389 19.6069C5.16486 19.6737 3.99706 19.3549 3.0009 18.7676C1.35003 17.7942 0.188356 16.0121 0.0191625 14.0995C-0.000454179 13.6906 -0.00719743 13.2823 0.00935414 12.8833C0.156479 11.328 0.925821 9.84021 2.11999 8.82812C3.47354 7.64928 5.36961 7.08775 7.14492 7.42001C7.16147 8.63072 7.11304 9.84021 7.11304 11.0509C6.30201 10.7886 5.35428 10.8621 4.64563 11.3544C4.12824 11.6897 3.7353 12.2034 3.53055 12.7846C3.36135 13.199 3.40978 13.6593 3.41959 14.0995C3.61392 15.4408 4.90371 16.5681 6.28056 16.4461C7.19335 16.4363 8.06813 15.9067 8.54383 15.1312C8.6977 14.8596 8.86996 14.5819 8.87916 14.2625C8.95946 12.8005 8.92758 11.3446 8.93739 9.88251C8.94414 6.58752 8.92758 3.30173 8.95272 0.0171646L8.9521 0.0165516Z"
        fill="#EA9C7D" />
</svg>