<svg width="128" height="128" viewBox="0 0 128 128" fill="none" xmlns="http://www.w3.org/2000/svg">
<path d="M95.6438 72.3426C95.6438 70.9492 95.744 69.5558 95.6237 68.1724C95.0022 60.8745 92.9071 54.108 88.2156 48.3338C81.5593 40.1438 72.7778 36.8658 62.4325 37.4372C49.6512 38.1589 40.8195 44.5847 35.9075 56.3033C32.7799 63.7416 32.2586 71.5908 33.4515 79.4901C35.1256 90.5973 41.1002 98.2962 52.0771 101.634C59.6155 103.93 67.2843 103.95 74.8929 102.136C82.9627 100.211 89.2381 95.76 92.7868 88.0511C95.0724 83.0689 95.9144 77.7859 95.6538 72.3326L95.6438 72.3426ZM77.1485 79.9813C75.6548 84.0613 72.7277 86.5574 68.5474 87.5499C65.1992 88.3418 61.851 88.2315 58.6231 87.0687C55.4754 85.9359 53.0796 83.8307 51.9769 80.6229C49.3103 72.8138 49.7514 65.2553 54.2324 58.1479C55.3852 56.3334 56.9089 54.7897 58.7033 53.5767C63.0139 50.6595 67.8256 51.1908 71.8455 54.9701C76.6974 59.5313 78.4617 65.2853 78.3314 71.7712C78.4116 74.5681 78.1309 77.3148 77.1585 79.9713L77.1485 79.9813Z" fill="#F0540B"/>
<path d="M48.4682 127.979C45.3405 127.979 42.2028 127.939 39.0752 127.999C37.6818 128.029 36.7495 127.438 36.539 126.154C35.8974 122.305 35.8974 118.425 36.6493 114.596C36.8999 113.333 37.9825 112.992 39.2055 112.992C44.0173 112.992 48.8191 113.112 53.6308 113.263C64.0564 113.594 74.4819 113.814 84.9074 114.095C86.3509 114.135 87.7945 114.305 89.238 114.325C90.5111 114.345 91.1928 115.057 91.4033 116.17C91.9045 118.796 92.0549 121.453 91.5336 124.099C91.1126 126.215 90.5011 126.776 88.426 126.836C79.2135 127.117 70.0109 127.417 60.7984 127.628C56.6883 127.728 52.5783 127.648 48.4582 127.648V127.989L48.4682 127.979Z" fill="#F0540B"/>
<path d="M70.6525 6.93249C70.0611 10.01 69.3694 13.6489 68.6777 17.2778C68.2266 19.6637 67.8256 22.0595 66.7931 24.295C65.8809 26.2799 64.2669 27.0718 62.1718 27.0317C60.1167 26.9916 59.0742 25.6483 58.4527 23.9141C57.2798 20.6461 57.3099 17.1976 57.0893 13.7993C56.9189 11.3132 56.9189 8.82713 56.8086 6.34104C56.6683 3.3036 58.2722 1.07815 61.2094 0.296241C63.8559 -0.405477 66.2518 0.165922 68.4371 1.72975C70.021 2.86252 70.7227 4.43638 70.6525 6.94252V6.93249Z" fill="#F0540B"/>
<path d="M46.2628 29.0065C46.2628 29.5278 46.3029 30.0491 46.2628 30.5704C46.0122 33.3973 44.0975 34.6604 41.4009 33.7582C38.5138 32.7858 36.3686 30.7207 34.2534 28.6757C32.0981 26.5906 30.1233 24.3151 28.3991 21.839C27.968 21.2275 27.537 20.5959 27.2262 19.9243C26.2739 17.8392 25.8528 15.6939 27.3665 13.6991C28.8903 11.6841 31.1157 11.243 33.4414 11.6039C37.6617 12.2555 40.9799 14.3507 43.0951 18.18C44.9696 21.5683 46.1325 25.1471 46.2728 29.0266L46.2628 29.0065Z" fill="#F0540B"/>
<path d="M81.3588 29.217C81.6996 23.8138 83.4439 18.9118 87.173 14.912C90.9122 10.8922 97.9695 11.1729 100.786 15.303C102.069 17.1776 101.919 19.1825 100.145 20.5458C96.576 23.2925 93.7692 26.741 90.8821 30.1293C89.8696 31.3122 88.7569 32.4249 87.6141 33.4875C86.5114 34.5 85.1681 35.2718 83.6644 34.5902C82.1808 33.9286 81.5593 32.5051 81.3688 30.9412C81.2986 30.3698 81.3588 29.7884 81.3588 29.207V29.217Z" fill="#F0540B"/>
</svg>
