<svg width="128" height="128" viewBox="0 0 128 128" fill="none" xmlns="http://www.w3.org/2000/svg">
<rect width="128" height="128" rx="32" fill="#F0540B"/>
<path d="M82.294 68.8231C82.294 68.0175 82.352 67.212 82.2824 66.4122C81.9231 62.1931 80.7119 58.2812 77.9996 54.943C74.1514 50.2081 69.0746 48.313 63.0937 48.6434C55.7046 49.0606 50.5988 52.7755 47.759 59.5504C45.9508 63.8506 45.6495 68.3884 46.3391 72.9552C47.307 79.3766 50.761 83.8275 57.107 85.7574C61.4652 87.0845 65.8987 87.0961 70.2975 86.0471C74.9628 84.9344 78.5907 82.3612 80.6423 77.9045C81.9637 75.0242 82.4505 71.97 82.2998 68.8173L82.294 68.8231ZM71.6014 73.2392C70.7379 75.598 69.0457 77.041 66.629 77.6148C64.6933 78.0726 62.7576 78.0089 60.8915 77.3366C59.0717 76.6817 57.6866 75.4647 57.0491 73.6101C55.5075 69.0955 55.7625 64.7257 58.3531 60.6167C59.0196 59.5678 59.9005 58.6753 60.9378 57.974C63.4299 56.2876 66.2117 56.5947 68.5357 58.7796C71.3406 61.4165 72.3606 64.7431 72.2853 68.4927C72.3317 70.1097 72.1694 71.6976 71.6072 73.2334L71.6014 73.2392Z" fill="white"/>
<path d="M55.0207 100.988C53.2125 100.988 51.3985 100.965 49.5904 100.999C48.7848 101.017 48.2458 100.675 48.1241 99.933C47.7532 97.7076 47.7532 95.4647 48.1879 93.2509C48.3328 92.5206 48.9587 92.3236 49.6657 92.3236C52.4475 92.3236 55.2235 92.3931 58.0053 92.4801C64.0326 92.6713 70.0599 92.7988 76.0871 92.9611C76.9217 92.9843 77.7562 93.0828 78.5907 93.0944C79.3268 93.106 79.7209 93.5174 79.8426 94.1607C80.1323 95.6791 80.2193 97.2149 79.9179 98.7449C79.6745 99.9678 79.321 100.292 78.1213 100.327C72.7953 100.489 67.4751 100.663 62.1491 100.785C59.773 100.843 57.3968 100.797 55.0149 100.797V100.994L55.0207 100.988Z" fill="white"/>
<path d="M67.846 31.0078C67.5041 32.787 67.1042 34.8908 66.7043 36.9887C66.4435 38.3681 66.2117 39.7532 65.6148 41.0455C65.0874 42.193 64.1543 42.6509 62.9431 42.6277C61.755 42.6045 61.1523 41.8279 60.793 40.8253C60.1149 38.936 60.1323 36.9424 60.0048 34.9777C59.9062 33.5405 59.9062 32.1032 59.8425 30.6659C59.7614 28.9099 60.6886 27.6233 62.3867 27.1713C63.9167 26.7656 65.3018 27.0959 66.5652 28C67.4809 28.6549 67.8866 29.5648 67.846 31.0136V31.0078Z" fill="white"/>
<path d="M53.7457 43.7694C53.7457 44.0708 53.7689 44.3721 53.7457 44.6735C53.6008 46.3078 52.4939 47.038 50.9349 46.5164C49.2658 45.9543 48.0256 44.7604 46.8028 43.5782C45.5567 42.3727 44.415 41.0571 43.4182 39.6257C43.169 39.2721 42.9198 38.907 42.7402 38.5187C42.1896 37.3133 41.9462 36.0731 42.8213 34.9198C43.7022 33.7549 44.9888 33.4999 46.3333 33.7085C48.7732 34.0852 50.6915 35.2965 51.9143 37.5103C52.9981 39.4692 53.6704 41.5382 53.7515 43.781L53.7457 43.7694Z" fill="white"/>
<path d="M74.0355 43.8911C74.2326 40.7674 75.241 37.9334 77.3969 35.621C79.5586 33.297 83.6386 33.4593 85.2671 35.847C86.0089 36.9308 85.922 38.0899 84.8962 38.878C82.833 40.466 81.2103 42.4596 79.5412 44.4185C78.9559 45.1023 78.3126 45.7456 77.6519 46.36C77.0144 46.9453 76.2378 47.3915 75.3685 46.9975C74.5108 46.615 74.1514 45.792 74.0413 44.8879C74.0007 44.5576 74.0355 44.2214 74.0355 43.8853V43.8911Z" fill="white"/>
</svg>
